<svg viewBox="0 0 1696 416"  version="1.1" xmlns="http://www.w3.org/2000/svg">
<g id="qubit_lines">
<path id="qubit_line:0" d="M64,64 L1664,64 " stroke="black"/>
<text dominant-baseline="central" text-anchor="end" font-family="monospace" font-size="12" x="64" y="64">q0</text>
<path id="qubit_line:1" d="M64,128 L1664,128 " stroke="black"/>
<text dominant-baseline="central" text-anchor="end" font-family="monospace" font-size="12" x="64" y="128">q1</text>
<path id="qubit_line:2" d="M64,192 L1664,192 " stroke="black"/>
<text dominant-baseline="central" text-anchor="end" font-family="monospace" font-size="12" x="64" y="192">q2</text>
<path id="qubit_line:3" d="M64,256 L1664,256 " stroke="black"/>
<text dominant-baseline="central" text-anchor="end" font-family="monospace" font-size="12" x="64" y="256">q3</text>
<path id="qubit_line:4" d="M64,320 L1664,320 " stroke="black"/>
<text dominant-baseline="central" text-anchor="end" font-family="monospace" font-size="12" x="64" y="320">q4</text>
</g>
<rect x="80" y="48" width="160" height="32" stroke="black" fill="white"/>
<text dominant-baseline="central" text-anchor="middle" font-family="monospace" font-size="16" x="160" y="64">COORDS(0)</text>
<rect x="80" y="112" width="160" height="32" stroke="black" fill="white"/>
<text dominant-baseline="central" text-anchor="middle" font-family="monospace" font-size="16" x="160" y="128">COORDS(1)</text>
<rect x="80" y="176" width="160" height="32" stroke="black" fill="white"/>
<text dominant-baseline="central" text-anchor="middle" font-family="monospace" font-size="16" x="160" y="192">COORDS(2)</text>
<rect x="80" y="240" width="160" height="32" stroke="black" fill="white"/>
<text dominant-baseline="central" text-anchor="middle" font-family="monospace" font-size="16" x="160" y="256">COORDS(3)</text>
<rect x="80" y="304" width="160" height="32" stroke="black" fill="white"/>
<text dominant-baseline="central" text-anchor="middle" font-family="monospace" font-size="16" x="160" y="320">COORDS(4)</text>
<rect x="272" y="48" width="32" height="32" stroke="black" fill="black"/>
<text dominant-baseline="central" text-anchor="middle" font-family="monospace" font-size="30" x="288" y="64" fill="white">R</text>
<rect x="272" y="112" width="32" height="32" stroke="black" fill="black"/>
<text dominant-baseline="central" text-anchor="middle" font-family="monospace" font-size="30" x="288" y="128" fill="white">R</text>
<rect x="272" y="176" width="32" height="32" stroke="black" fill="black"/>
<text dominant-baseline="central" text-anchor="middle" font-family="monospace" font-size="30" x="288" y="192" fill="white">R</text>
<rect x="272" y="240" width="32" height="32" stroke="black" fill="black"/>
<text dominant-baseline="central" text-anchor="middle" font-family="monospace" font-size="30" x="288" y="256" fill="white">R</text>
<rect x="272" y="304" width="32" height="32" stroke="black" fill="black"/>
<text dominant-baseline="central" text-anchor="middle" font-family="monospace" font-size="30" x="288" y="320" fill="white">R</text>
<path d="M68,40 L68,32 L316,32 L316,40 " stroke="black" fill="none"/>
<path d="M68,376 L68,384 L316,384 L316,376 " stroke="black" fill="none"/>
<path d="M352,64 L352,128 " stroke="black"/>
<circle cx="352" cy="64" r="12" stroke="none" fill="black"/>
<circle cx="352" cy="128" r="12" stroke="black" fill="white"/>
<path d="M340,128 L364,128 M352,116 L352,140 " stroke="black"/>
<path d="M352,192 L352,256 " stroke="black"/>
<circle cx="352" cy="192" r="12" stroke="none" fill="black"/>
<circle cx="352" cy="256" r="12" stroke="black" fill="white"/>
<path d="M340,256 L364,256 M352,244 L352,268 " stroke="black"/>
<path d="M416,128 L416,192 " stroke="black"/>
<circle cx="416" cy="192" r="12" stroke="none" fill="black"/>
<circle cx="416" cy="128" r="12" stroke="black" fill="white"/>
<path d="M404,128 L428,128 M416,116 L416,140 " stroke="black"/>
<path d="M416,256 L416,320 " stroke="black"/>
<circle cx="416" cy="320" r="12" stroke="none" fill="black"/>
<circle cx="416" cy="256" r="12" stroke="black" fill="white"/>
<path d="M404,256 L428,256 M416,244 L416,268 " stroke="black"/>
<rect x="464" y="112" width="32" height="32" stroke="black" fill="black"/>
<text dominant-baseline="central" text-anchor="middle" font-family="monospace" font-size="30" x="480" y="128" fill="white">M</text>
<text text-anchor="middle" font-family="monospace" font-size="8" x="480" y="108">rec[0]</text>
<rect x="464" y="240" width="32" height="32" stroke="black" fill="black"/>
<text dominant-baseline="central" text-anchor="middle" font-family="monospace" font-size="30" x="480" y="256" fill="white">M</text>
<text text-anchor="middle" font-family="monospace" font-size="8" x="480" y="236">rec[1]</text>
<rect x="528" y="240" width="160" height="32" stroke="black" fill="lightgray"/>
<text dominant-baseline="central" text-anchor="middle" font-family="monospace" font-size="16" x="608" y="256">DETECTOR</text>
<text dominant-baseline="hanging" text-anchor="middle" font-family="monospace" font-size="8" x="608" y="276">coords=(3,0)</text>
<text text-anchor="middle" font-family="monospace" font-size="8" x="608" y="236">D0 = rec[1]</text>
<rect x="528" y="112" width="160" height="32" stroke="black" fill="lightgray"/>
<text dominant-baseline="central" text-anchor="middle" font-family="monospace" font-size="16" x="608" y="128">DETECTOR</text>
<text dominant-baseline="hanging" text-anchor="middle" font-family="monospace" font-size="8" x="608" y="148">coords=(1,0)</text>
<text text-anchor="middle" font-family="monospace" font-size="8" x="608" y="108">D1 = rec[0]</text>
<path d="M452,40 L452,32 L700,32 L700,40 " stroke="black" fill="none"/>
<path d="M452,376 L452,384 L700,384 L700,376 " stroke="black" fill="none"/>
<path d="M744,32 L736,32 L736,384 L744,384 " stroke="black" fill="none"/>
<text dominant-baseline="auto" text-anchor="start" font-family="monospace" font-size="12" x="740" y="380">REP9</text>
<rect x="784" y="112" width="32" height="32" stroke="black" fill="black"/>
<text dominant-baseline="central" text-anchor="middle" font-family="monospace" font-size="30" x="800" y="128" fill="white">R</text>
<rect x="784" y="240" width="32" height="32" stroke="black" fill="black"/>
<text dominant-baseline="central" text-anchor="middle" font-family="monospace" font-size="30" x="800" y="256" fill="white">R</text>
<path d="M864,64 L864,128 " stroke="black"/>
<circle cx="864" cy="64" r="12" stroke="none" fill="black"/>
<circle cx="864" cy="128" r="12" stroke="black" fill="white"/>
<path d="M852,128 L876,128 M864,116 L864,140 " stroke="black"/>
<path d="M864,192 L864,256 " stroke="black"/>
<circle cx="864" cy="192" r="12" stroke="none" fill="black"/>
<circle cx="864" cy="256" r="12" stroke="black" fill="white"/>
<path d="M852,256 L876,256 M864,244 L864,268 " stroke="black"/>
<path d="M928,128 L928,192 " stroke="black"/>
<circle cx="928" cy="192" r="12" stroke="none" fill="black"/>
<circle cx="928" cy="128" r="12" stroke="black" fill="white"/>
<path d="M916,128 L940,128 M928,116 L928,140 " stroke="black"/>
<path d="M928,256 L928,320 " stroke="black"/>
<circle cx="928" cy="320" r="12" stroke="none" fill="black"/>
<circle cx="928" cy="256" r="12" stroke="black" fill="white"/>
<path d="M916,256 L940,256 M928,244 L928,268 " stroke="black"/>
<rect x="976" y="112" width="32" height="32" stroke="black" fill="black"/>
<text dominant-baseline="central" text-anchor="middle" font-family="monospace" font-size="30" x="992" y="128" fill="white">M</text>
<text text-anchor="middle" font-family="monospace" font-size="8" x="992" y="108">rec[2+iter*2]</text>
<rect x="976" y="240" width="32" height="32" stroke="black" fill="black"/>
<text dominant-baseline="central" text-anchor="middle" font-family="monospace" font-size="30" x="992" y="256" fill="white">M</text>
<text text-anchor="middle" font-family="monospace" font-size="8" x="992" y="236">rec[3+iter*2]</text>
<rect x="1040" y="112" width="224" height="32" stroke="black" fill="lightgray"/>
<text dominant-baseline="central" text-anchor="middle" font-family="monospace" font-size="16" x="1152" y="128">DETECTOR</text>
<text dominant-baseline="hanging" text-anchor="middle" font-family="monospace" font-size="8" x="1152" y="148">coords=(1,1+iter)</text>
<text text-anchor="middle" font-family="monospace" font-size="8" x="1152" y="108">D[2+iter*2] = rec[2+iter*2]*rec[0+iter*2]</text>
<rect x="1040" y="240" width="224" height="32" stroke="black" fill="lightgray"/>
<text dominant-baseline="central" text-anchor="middle" font-family="monospace" font-size="16" x="1152" y="256">DETECTOR</text>
<text dominant-baseline="hanging" text-anchor="middle" font-family="monospace" font-size="8" x="1152" y="276">coords=(3,1+iter)</text>
<text text-anchor="middle" font-family="monospace" font-size="8" x="1152" y="236">D[3+iter*2] = rec[3+iter*2]*rec[1+iter*2]</text>
<path d="M964,40 L964,32 L1276,32 L1276,40 " stroke="black" fill="none"/>
<path d="M964,376 L964,384 L1276,384 L1276,376 " stroke="black" fill="none"/>
<path d="M1304,32 L1312,32 L1312,384 L1304,384 " stroke="black" fill="none"/>
<rect x="1360" y="48" width="32" height="32" stroke="black" fill="black"/>
<text dominant-baseline="central" text-anchor="middle" font-family="monospace" font-size="30" x="1376" y="64" fill="white">M</text>
<text text-anchor="middle" font-family="monospace" font-size="8" x="1376" y="44">rec[20]</text>
<rect x="1360" y="176" width="32" height="32" stroke="black" fill="black"/>
<text dominant-baseline="central" text-anchor="middle" font-family="monospace" font-size="30" x="1376" y="192" fill="white">M</text>
<text text-anchor="middle" font-family="monospace" font-size="8" x="1376" y="172">rec[21]</text>
<rect x="1360" y="304" width="32" height="32" stroke="black" fill="black"/>
<text dominant-baseline="central" text-anchor="middle" font-family="monospace" font-size="30" x="1376" y="320" fill="white">M</text>
<text text-anchor="middle" font-family="monospace" font-size="8" x="1376" y="300">rec[22]</text>
<rect x="1360" y="112" width="288" height="32" stroke="black" fill="lightgray"/>
<text dominant-baseline="central" text-anchor="middle" font-family="monospace" font-size="16" x="1504" y="128">DETECTOR</text>
<text dominant-baseline="hanging" text-anchor="middle" font-family="monospace" font-size="8" x="1504" y="148">coords=(1,10)</text>
<text text-anchor="middle" font-family="monospace" font-size="8" x="1504" y="108">D20 = rec[21]*rec[20]*rec[18]</text>
<rect x="1360" y="240" width="288" height="32" stroke="black" fill="lightgray"/>
<text dominant-baseline="central" text-anchor="middle" font-family="monospace" font-size="16" x="1504" y="256">DETECTOR</text>
<text dominant-baseline="hanging" text-anchor="middle" font-family="monospace" font-size="8" x="1504" y="276">coords=(3,10)</text>
<text text-anchor="middle" font-family="monospace" font-size="8" x="1504" y="236">D21 = rec[22]*rec[21]*rec[19]</text>
</svg>